# xmcd
#
# Track frame offsets:
# 150
# 13204
# 29838
# 40907
# 67726
# 88450
# 99819
# 112943
# 124081
# 142751
# 159671
# 179148
# 196691
# 217094
# 226809
# 245030
#
# Disc length: 3447 seconds
#
# Revision: 0
# Processed by: cddbd v1.5.1PL0 Copyright (c) Steve Scherf et al.
# Submitted via: Audion 3.0.2 (http://www.panic.com/audion/)
#
DISCID=de0d7510
DTITLE=Garbage - Garbage B's
DYEAR=1900
DGENRE=
TTITLE0=Garbage 1
TTITLE1=Garbage 2
TTITLE2=Garbage 3
TTITLE3=Garbage 4
TTITLE4=Garbage 5
TTITLE5=Garbage 6
TTITLE6=Garbage 7
TTITLE7=Garbage 8
TTITLE8=Garbage 9
TTITLE9=Garbage 10
TTITLE10=Garbage 11
TTITLE11=Garbage 12
TTITLE12=Garbage 13
TTITLE13=Garbage 14
TTITLE14=Garbage 15
TTITLE15=Garbage 16
EXTD=
EXTT0=
EXTT1=
EXTT2=
EXTT3=
EXTT4=
EXTT5=
EXTT6=
EXTT7=
EXTT8=
EXTT9=
EXTT10=
EXTT11=
EXTT12=
EXTT13=
EXTT14=
EXTT15=
PLAYORDER=
